<!-- <svg width="29" height="33" viewBox="0 0 29 33" fill="none" xmlns="http://www.w3.org/2000/svg">
<path d="M0 8.35079L14.5 0V17.6126L0 25.2042V8.35079Z" fill="#91A9FF"/>
<path d="M28.9241 8.35079L14.4241 0V17.6126L28.9241 25.2042V8.35079Z" fill="#5E81FF"/>
<path d="M14.4241 17.6126L28.9241 25.2042L14.4241 32.7958L-6.63625e-06 25.2042L14.4241 17.6126Z" fill="#3C65F5"/>
</svg> -->

<svg width="200" height="200" viewBox="0 0 100 100" fill="none" xmlns="http://www.w3.org/2000/svg">
  <path d="M10 25L20 10L30 25L20 40L10 25Z" fill="#91A9FF"/>
  <path d="M40 25L30 10L40 0L50 10L40 25Z" fill="#5E81FF"/>
  <path d="M30 10L40 25L30 40L20 25L30 10Z" fill="#3C65F5"/>
</svg>
